# xmcd
#
# Track frame offsets: 
#        182
#        15095
#        39805
#        52612
#        64667
#        77180
#        89665
#        102092
#        116062
#        129300
#        142440
#        169050
#        181832
#        193865
#        205317
#        217997
#        228845
#        253462
#
# Disc length: 3521 seconds
#
# Revision: 5
# Processed by: cddbd v1.5.2PL0 Copyright (c) Steve Scherf et al.
# Submitted via: ExactAudioCopy v1.1
#
DISCID=f50dbf12
DTITLE=Various Artist - Blues Masters - Volume 13 - New York City Blu
DTITLE=es (Rhino)
DYEAR=1993
DGENRE=R&B
TTITLE0=Lionel Hampton and His Orchestra - Hamp's Boogie Woogie (mono)
TTITLE1=Duke Ellington and His Orchestra - Happy Go Lucky Local (Parts 1
TTITLE1=and 2) (mono)
TTITLE2=Buddy Johnson and His Orchestra - Walk 'Em (mono)
TTITLE3=Hot Lips Page and His Orchestra - Walkin' In A Daze (mono)
TTITLE4=Joe Morris and His Orchestra - Lowe Groovin' (mono)
TTITLE5=Eddie Vinson and His Orchestra - Old Maid Boogie (mono)
TTITLE6=Arnett Cobb and His Orchestra - Smooth Sailing (mono)
TTITLE7=Lucky Millinder and His Orchestra - D' Natural Blues (mono)
TTITLE8=Erskine Hawkins - John Henry (mono)
TTITLE9=Joe Turner with Van 'Piano Man' Walls and His Orchestra - Sweet 
TTITLE9=Sixteen (mono)
TTITLE10=Cootie Williams and His Orchestra - 'Gator Tail (Parts 1 and 2) (
TTITLE10=mono)
TTITLE11=Johnny Hodges and His Orchestra - Castle Rock (mono)
TTITLE12=Al Hibbler - After The Lights Go Down Low (mono)
TTITLE13=Chuck Calhoun and His Atlantic All-Stars - Hey Tiger (mono)
TTITLE14=Big Maybelle with Danny Mendelsohn and His Orchestra - I'm Gett
TTITLE14=ing 'Long Alright (mono)
TTITLE15=Sam 'The Man' Taylor - Oo-Wee (mono)
TTITLE16=Count Basie and His Orchestra featuring Joe Williams - Every Da
TTITLE16=y (Parts 1 and 2) (mono)
TTITLE17=Alan Freed and His Rock 'N' Roll Band - Right Now, Right Now (m
TTITLE17=ono)
EXTD=
EXTT0=
EXTT1=
EXTT2=
EXTT3=
EXTT4=
EXTT5=
EXTT6=
EXTT7=
EXTT8=
EXTT9=
EXTT10=
EXTT11=
EXTT12=
EXTT13=
EXTT14=
EXTT15=
EXTT16=
EXTT17=
PLAYORDER=
